<svg width="380" height="89" viewBox="0 0 380 89" fill="none" xmlns="http://www.w3.org/2000/svg">
<path d="M56.7266 47.9862C56.5178 48.0028 56.3137 47.9454 56.1143 47.8142C55.9149 47.6829 55.8044 47.4816 55.7829 47.2103C55.4258 44.823 55.0987 42.5489 54.8016 40.388C54.5028 38.2062 54.2748 36.1238 54.1178 34.1408C54.0153 32.8466 53.9475 31.5917 53.9142 30.376C53.8793 29.1395 53.8895 27.9415 53.9447 26.7819C53.96 26.4446 54.067 26.205 54.2658 26.0633C54.4855 25.9198 54.7014 25.8607 54.9134 25.886C55.1864 25.8853 55.4035 25.9732 55.5644 26.1495C55.7463 26.3241 55.8279 26.5592 55.8093 26.8547C55.7601 27.8248 55.7662 29.0951 55.8276 30.6656C55.8889 32.2361 55.9832 33.825 56.1105 35.4323C56.1998 36.5595 56.2953 37.6336 56.3972 38.6548C56.5199 39.6743 56.6503 40.5251 56.7884 41.2074C57.8168 41.462 58.8402 41.654 59.8587 41.7834C60.8771 41.9128 61.8664 41.9395 62.8266 41.8634C64.3922 41.7395 65.778 41.3357 66.9841 40.652C68.2095 39.9459 69.1437 39.0107 69.7866 37.8465C70.428 36.6615 70.6875 35.2967 70.5651 33.752C70.4478 32.27 70.0113 31.0023 69.2557 29.9488C68.5002 28.8954 67.5244 28.1115 66.3284 27.5971C65.1516 27.0601 63.8535 26.8479 62.4341 26.9603C61.5992 27.0264 60.7629 27.2081 59.9253 27.5055C59.086 27.782 58.3046 28.1275 57.5813 28.5418C57.4418 28.6369 57.2781 28.6919 57.0902 28.7067C56.7354 28.7348 56.4717 28.5877 56.2991 28.2653C56.2041 28.1258 56.1499 27.9725 56.1367 27.8055C56.1119 27.4924 56.2574 27.2078 56.5732 26.9518C57.3317 26.4506 58.2245 26.0544 59.2516 25.763C60.2772 25.4507 61.3222 25.2524 62.3867 25.1681C64.2445 25.021 65.9153 25.2983 67.3992 26C68.8814 26.6808 70.0737 27.6786 70.976 28.9934C71.8991 30.3066 72.4302 31.8399 72.569 33.5933C72.7211 35.5137 72.3724 37.2112 71.523 38.6858C70.6735 40.1603 69.454 41.3386 67.8645 42.2207C66.2959 43.1011 64.4992 43.6214 62.4744 43.7818C60.6375 43.9272 58.8368 43.7337 57.0723 43.2013L57.6178 46.9074C57.6877 47.259 57.6136 47.5169 57.3956 47.6812C57.1792 47.8664 56.9562 47.9681 56.7266 47.9862ZM79.2687 42.9874C78.4964 43.0486 77.8608 42.8469 77.3619 42.3823C76.863 41.9177 76.5879 41.3618 76.5367 40.7148C76.4788 39.9842 76.6621 39.3815 77.0867 38.9068C77.5112 38.4321 78.1096 38.1642 78.8819 38.103C79.696 38.0385 80.3404 38.2186 80.8151 38.6431C81.2898 39.0676 81.5544 39.6242 81.609 40.3131C81.6685 41.0645 81.486 41.6776 81.0615 42.1523C80.6386 42.6479 80.041 42.9263 79.2687 42.9874ZM101.875 41.1973C101.103 41.2584 100.304 41.2482 99.478 41.1665C98.6523 41.0849 97.8234 40.9615 96.9911 40.7964C96.5637 40.7042 96.3343 40.4598 96.3029 40.0632C96.2517 39.4161 96.4974 39.0711 97.0401 39.0281C97.1654 39.0182 97.2706 39.0203 97.3557 39.0346C98.4 39.225 99.2298 39.3588 99.845 39.4361C100.483 39.5326 101.063 39.5602 101.584 39.5189C102.232 39.4677 102.839 39.3145 103.407 39.0595C103.977 38.8254 104.436 38.5264 104.785 38.1627C105.154 37.7764 105.32 37.3537 105.284 36.8945C105.245 36.4144 104.987 36.0673 104.508 35.8532C104.027 35.6182 103.395 35.4582 102.611 35.3732C101.825 35.2674 100.938 35.2011 99.9487 35.1745C98.9786 35.1253 97.9763 35.0681 96.9419 35.003C94.8891 34.8085 93.2827 34.2845 92.1229 33.4312C90.9823 32.5553 90.3343 31.1363 90.179 29.1741C90.0814 27.9426 90.266 26.8252 90.7327 25.8221C91.2203 24.8172 91.9081 23.9541 92.7961 23.2326C93.6826 22.4903 94.7074 21.905 95.8708 21.4768C97.0534 21.0261 98.2917 20.7495 99.5859 20.647C100.734 20.5561 101.873 20.613 103.002 20.8176C104.132 21.0222 105.159 21.3925 106.083 21.9284C106.392 22.114 106.556 22.332 106.576 22.5825C106.591 22.7704 106.543 22.9632 106.433 23.161C106.34 23.3153 106.223 23.4296 106.082 23.5038C105.96 23.5555 105.836 23.5863 105.711 23.5962C105.544 23.6094 105.373 23.5705 105.198 23.4793C104.45 23.0554 103.61 22.7859 102.676 22.6708C101.741 22.5348 100.794 22.5048 99.8336 22.5808C98.3307 22.6998 96.9599 23.0289 95.7213 23.5681C94.4828 24.1073 93.512 24.8458 92.8091 25.7837C92.1254 26.699 91.8332 27.7829 91.9324 29.0353C92.0448 30.4547 92.5248 31.4774 93.3726 32.1034C94.2396 32.7069 95.477 33.0815 97.0849 33.2273C98.2478 33.3242 99.3986 33.4011 100.537 33.458C101.695 33.4923 102.754 33.5975 103.713 33.7736C104.672 33.9497 105.453 34.2659 106.057 34.7223C106.679 35.1561 107.026 35.8218 107.097 36.7194C107.166 37.5961 106.975 38.3569 106.522 39.0019C106.069 39.6469 105.426 40.1494 104.593 40.5094C103.783 40.8887 102.877 41.1179 101.875 41.1973ZM113.606 40.2683C112.834 40.3294 112.198 40.1277 111.7 39.6631C111.201 39.1985 110.926 38.6427 110.874 37.9956C110.816 37.265 111 36.6624 111.424 36.1876C111.849 35.7129 112.447 35.445 113.22 35.3838C114.034 35.3194 114.678 35.4994 115.153 35.9239C115.627 36.3484 115.892 36.9051 115.947 37.5939C116.006 38.3454 115.824 38.9584 115.399 39.4332C114.976 39.9287 114.379 40.2071 113.606 40.2683Z" fill="#966BDA"/>
<path d="M85.6853 84.8279C85.5521 84.8315 85.4293 84.7878 85.317 84.6968C85.2058 84.616 85.1479 84.5039 85.1431 84.3605C85.1336 84.269 85.1139 84.081 85.0841 83.7964C85.0645 83.5107 85.0412 83.1894 85.0141 82.8326C84.986 82.4656 84.9544 82.1144 84.9193 81.779C84.8944 81.4425 84.8723 81.1828 84.8532 80.9998L78.3122 81.6841C78.3537 82.0805 78.3915 82.4414 78.4255 82.7666C78.4697 83.0908 78.5155 83.4303 78.5629 83.785C78.6092 84.1295 78.663 84.5452 78.7242 85.032C78.7583 85.1621 78.7299 85.2832 78.6389 85.3955C78.558 85.5067 78.4464 85.5698 78.3041 85.5846C78.1436 85.622 78.0169 85.589 77.9239 85.4857C77.8421 85.3915 77.7852 85.2896 77.7531 85.1799C77.7217 84.9776 77.6775 84.6534 77.6206 84.2073C77.5738 83.76 77.515 83.2472 77.4442 82.6689C77.3825 82.0794 77.3208 81.4898 77.2592 80.9003C77.2049 80.3819 77.1534 79.8889 77.1044 79.4213C77.0646 78.9425 77.0261 78.5252 76.9889 78.1695C76.9618 77.8126 76.9454 77.5575 76.9396 77.4039C76.9382 77.0958 77.0747 76.9274 77.3492 76.8987C77.5525 76.8774 77.6955 76.9189 77.7784 77.0233C77.8703 77.1165 77.9131 77.2302 77.9066 77.3644C77.9161 77.4559 77.9313 77.6496 77.9519 77.9454C77.9817 78.23 78.0107 78.5558 78.0388 78.9228C78.0669 79.2898 78.0929 79.6365 78.1168 79.9628C78.1508 80.2881 78.1768 80.5371 78.1949 80.7099L84.7511 80.024C84.733 79.8512 84.7014 79.5976 84.6561 79.2632C84.621 78.9278 84.5798 78.5827 84.5324 78.228C84.4839 77.8632 84.4397 77.539 84.3998 77.2554C84.369 76.9606 84.3493 76.7726 84.3408 76.6913C84.3125 76.5195 84.3501 76.3872 84.4534 76.2942C84.5556 76.191 84.6677 76.133 84.7897 76.1202C84.9117 76.1075 85.0227 76.137 85.1226 76.2087C85.2226 76.2805 85.2801 76.3875 85.295 76.5298C85.3478 76.7401 85.4006 77.048 85.4533 77.4535C85.5161 77.8579 85.5747 78.3194 85.6289 78.8378C85.6922 79.3449 85.7521 79.8679 85.8084 80.4066C85.8648 80.9453 85.915 81.4744 85.9591 81.9939C86.0123 82.5021 86.05 82.9606 86.0722 83.3693C86.1035 83.7668 86.1156 84.0789 86.1085 84.3057C86.1212 84.4277 86.0867 84.5392 86.0048 84.6403C85.9239 84.7515 85.8174 84.814 85.6853 84.8279ZM97.2286 83.9285C96.2833 84.0274 95.4392 83.9153 94.6964 83.5923C93.9637 83.2681 93.3671 82.7705 92.9064 82.0994C92.4548 81.4171 92.1779 80.588 92.0758 79.6122C91.9738 78.6364 92.0679 77.7685 92.3583 77.0085C92.6488 76.2486 93.1188 75.6342 93.7686 75.1655C94.4183 74.6967 95.2361 74.4108 96.2221 74.3076C97.2386 74.2013 98.1131 74.3102 98.8458 74.6343C99.5785 74.9584 100.16 75.4627 100.592 76.1472C101.022 76.8215 101.289 77.6516 101.392 78.6376C101.555 80.2029 101.278 81.4342 100.56 82.3314C99.8538 83.2377 98.7432 83.77 97.2286 83.9285ZM97.1281 82.9679C98.3987 82.835 99.3004 82.417 99.8331 81.7139C100.366 81.0107 100.565 80.0188 100.431 78.7381C100.305 77.5285 99.8957 76.6156 99.2044 75.9994C98.5131 75.3833 97.5525 75.1395 96.3226 75.2682C95.0927 75.3969 94.2044 75.8443 93.6577 76.6106C93.11 77.3666 92.8978 78.3342 93.0212 79.5133C93.1445 80.6924 93.5625 81.594 94.2752 82.2182C94.9981 82.8414 95.949 83.0913 97.1281 82.9679ZM124.501 80.7978C124.349 80.8137 124.222 80.7757 124.119 80.6836C124.029 80.6006 123.978 80.5134 123.969 80.4219C123.975 80.3802 123.968 80.2679 123.949 80.0849C123.941 79.911 123.925 79.7123 123.902 79.4887C123.888 79.2538 123.869 79.0297 123.847 78.8162C123.835 78.6017 123.823 78.4385 123.811 78.3267C123.471 78.4137 123.135 78.49 122.802 78.5556C122.47 78.6211 122.141 78.6709 121.816 78.705C121.338 78.755 120.852 78.775 120.358 78.765C120.027 79.1387 119.708 79.5216 119.399 79.9135C119.09 80.2952 118.825 80.662 118.605 81.0139C118.499 81.1791 118.38 81.2687 118.248 81.2825C118.177 81.2899 118.077 81.2746 117.95 81.2366C117.863 81.1942 117.796 81.1396 117.748 81.0727C117.71 81.0048 117.687 80.9352 117.68 80.8641C117.669 80.7624 117.685 80.6683 117.727 80.5816C117.843 80.4052 117.996 80.1991 118.187 79.9633C118.377 79.7173 118.567 79.4764 118.759 79.2406C118.959 78.9936 119.133 78.7905 119.281 78.6311C118.416 78.4236 117.745 78.0519 117.268 77.5161C116.801 76.9793 116.525 76.3093 116.441 75.5063C116.372 74.8456 116.517 74.219 116.876 73.6265C117.235 73.0239 117.725 72.5513 118.347 72.2088C118.745 71.9924 119.189 71.8124 119.677 71.6688C120.176 71.5242 120.679 71.4252 121.188 71.3721C122.102 71.2764 122.94 71.3224 123.699 71.5101C123.815 71.5391 123.898 71.5971 123.949 71.6844C124.009 71.7705 124.048 71.8487 124.066 71.9188C124.174 72.6576 124.279 73.4173 124.381 74.1978C124.483 74.9784 124.574 75.7447 124.652 76.4969C124.724 77.178 124.783 77.8397 124.829 78.4822C124.886 79.1237 124.924 79.7311 124.943 80.3046C124.948 80.448 124.898 80.5611 124.793 80.6439C124.69 80.7369 124.593 80.7882 124.501 80.7978ZM123.707 77.3357C123.571 76.0346 123.452 74.9424 123.349 74.0591C123.257 73.1748 123.189 72.6219 123.145 72.4004C122.547 72.2882 121.908 72.2678 121.227 72.339C120.658 72.3986 120.106 72.5231 119.571 72.7127C119.046 72.9012 118.605 73.1529 118.247 73.4677C117.918 73.7591 117.681 74.051 117.537 74.3435C117.403 74.635 117.358 74.9891 117.402 75.4058C117.471 76.0665 117.694 76.5826 118.072 76.9541C118.459 77.3144 118.957 77.5552 119.566 77.6764C120.185 77.7967 120.87 77.8174 121.623 77.7387C122.293 77.6686 122.988 77.5342 123.707 77.3357ZM123.964 80.3762L123.969 80.4219C123.972 80.4524 123.97 80.4372 123.964 80.3762ZM145.927 78.6487C145.785 78.6636 145.663 78.6301 145.562 78.5482C145.461 78.4663 145.403 78.3542 145.388 78.2119L144.673 71.3812C144.47 71.4025 144.191 71.4368 143.836 71.4842C143.481 71.5214 143.11 71.5653 142.725 71.6159C142.34 71.6665 141.995 71.7128 141.691 71.7549C141.386 71.7868 141.184 71.8131 141.083 71.8339C140.951 71.8478 140.835 71.8188 140.735 71.747C140.644 71.6641 140.581 71.5576 140.547 71.4276C140.515 71.1226 140.65 70.939 140.952 70.8766C141.163 70.8339 141.493 70.7892 141.94 70.7424C142.386 70.6854 142.899 70.6266 143.478 70.566C144.067 70.4942 144.661 70.4269 145.261 70.3642C146.053 70.2812 146.806 70.2076 147.519 70.1433C148.23 70.0689 148.775 70.0171 149.152 69.9879C149.294 69.973 149.416 70.0116 149.518 70.1037C149.63 70.1845 149.682 70.2972 149.677 70.4416C149.694 70.6042 149.651 70.7321 149.548 70.8251C149.453 70.9069 149.35 70.9536 149.239 70.9653C149.053 70.9641 148.824 70.9779 148.549 71.0066C148.274 71.0251 147.907 71.0583 147.45 71.1062C146.992 71.154 146.388 71.2173 145.635 71.296L146.348 78.1114C146.362 78.2435 146.328 78.3601 146.246 78.4612C146.176 78.5713 146.069 78.6339 145.927 78.6487ZM164.889 76.9116C164.68 76.882 164.556 76.818 164.515 76.7195C164.474 76.6312 164.446 76.5058 164.429 76.3432C163.365 76.8758 162.314 77.1964 161.277 77.3048C160.484 77.3878 159.754 77.3306 159.086 77.1333C158.418 76.9361 157.862 76.5832 157.418 76.0747C156.984 75.555 156.722 74.8733 156.634 74.0296C156.545 73.1758 156.746 72.4457 157.237 71.8394C157.728 71.2229 158.398 70.7521 159.247 70.4268C159.713 70.265 160.185 70.1592 160.663 70.1092C161.202 70.0528 161.742 70.058 162.283 70.1246C162.835 70.1903 163.356 70.3104 163.847 70.4851C163.521 69.6253 162.998 69.048 162.278 68.7533C161.569 68.4576 160.737 68.3597 159.781 68.4596C159.355 68.5043 158.916 68.5811 158.465 68.6899C158.012 68.7886 157.583 68.9055 157.176 69.0405C157.057 69.0838 156.933 69.0762 156.803 69.0178C156.683 68.9482 156.601 68.8489 156.556 68.72C156.531 68.5787 156.543 68.449 156.593 68.3308C156.651 68.2014 156.746 68.1247 156.877 68.1007C157.922 67.7756 158.866 67.5689 159.71 67.4806C161.285 67.3158 162.527 67.5918 163.434 68.3087C164.34 69.0154 164.932 70.1507 165.209 71.7145C165.266 71.9654 165.313 72.2688 165.35 72.6245C165.391 73.021 165.421 73.4545 165.44 73.9253C165.458 74.3961 165.465 74.8527 165.46 75.295C165.455 75.7374 165.438 76.1194 165.41 76.4409C165.408 76.6158 165.348 76.735 165.232 76.7986C165.125 76.8612 165.011 76.8988 164.889 76.9116ZM160.19 76.3396C160.377 76.3612 160.563 76.3674 160.747 76.3585C160.932 76.3596 161.116 76.3507 161.299 76.3315C161.837 76.2752 162.369 76.1477 162.893 75.949C163.416 75.7503 163.941 75.5105 164.467 75.2294C164.467 74.7464 164.462 74.2999 164.45 73.8902C164.448 73.4793 164.427 73.0859 164.388 72.7098C164.37 72.537 164.347 72.3698 164.32 72.2082C164.292 72.0365 164.259 71.8704 164.222 71.7099C164.222 71.7099 164.217 71.7104 164.206 71.7115C164.206 71.7115 164.206 71.7064 164.205 71.6962C163.664 71.4343 163.095 71.2523 162.498 71.1503C161.911 71.037 161.338 71.0096 160.779 71.0681C160.606 71.0862 160.434 71.1145 160.264 71.1529C160.092 71.1811 159.922 71.2246 159.753 71.2833C159.069 71.5193 158.525 71.8742 158.123 72.3479C157.72 72.8216 157.553 73.3837 157.621 74.0343C157.702 74.8068 157.982 75.3684 158.46 75.7191C158.949 76.0687 159.525 76.2756 160.19 76.3396ZM173.374 75.654C173.221 75.6699 173.104 75.6308 173.022 75.5366C172.942 75.4525 172.886 75.3608 172.855 75.2612C172.818 75.1007 172.776 74.8533 172.731 74.5189C172.686 74.1846 172.627 73.718 172.554 73.1194C172.481 72.5207 172.395 71.7488 172.296 70.8035C172.196 69.848 172.073 68.674 171.928 67.2814C171.911 67.1188 171.954 66.996 172.059 66.9132C172.162 66.8202 172.27 66.7678 172.381 66.7561C172.555 66.7482 172.684 66.7964 172.766 66.9008C172.848 66.995 172.895 67.098 172.907 67.2098C172.916 67.3013 172.931 67.4899 172.95 67.7755C172.98 68.0602 173.016 68.4058 173.059 68.8123C173.1 69.2088 173.139 69.6311 173.176 70.0794C173.223 70.5267 173.268 70.9587 173.312 71.3754C174.042 71.2887 174.739 71.1182 175.401 70.864C176.073 70.6087 176.661 70.2852 177.164 69.8934C177.667 69.4914 178.04 69.0362 178.285 68.5276C178.529 68.0089 178.599 67.4518 178.496 66.8563C178.464 66.5514 178.604 66.3672 178.916 66.3037C179.221 66.2718 179.405 66.4118 179.468 66.7237C179.581 67.6059 179.443 68.3962 179.054 69.0946C178.664 69.793 178.126 70.3939 177.439 70.8974C178.172 71.5195 178.803 72.1008 179.332 72.6415C179.87 73.1709 180.226 73.6218 180.398 73.9942C180.435 74.052 180.458 74.1165 180.465 74.1876C180.478 74.3096 180.443 74.4211 180.361 74.5222C180.28 74.6334 180.159 74.6975 179.996 74.7145C179.793 74.7358 179.64 74.649 179.537 74.4543C179.373 74.1631 179.113 73.8359 178.756 73.4724C178.409 73.0977 178.036 72.7308 177.639 72.3716C177.241 72.0022 176.879 71.6906 176.555 71.4369C176.4 71.525 176.189 71.6191 175.922 71.7189C175.655 71.8188 175.362 71.9162 175.043 72.0112C174.733 72.095 174.432 72.1676 174.141 72.2289C173.859 72.2892 173.622 72.3294 173.429 72.3496C173.526 73.0794 173.597 73.6577 173.641 74.0846C173.695 74.5003 173.75 74.8285 173.806 75.0693C173.842 75.2196 173.82 75.3504 173.739 75.4616C173.668 75.5718 173.547 75.6359 173.374 75.654ZM200.467 72.8658C200.193 72.9047 199.878 72.9376 199.521 72.9647C199.175 72.9907 198.836 73.0004 198.507 72.9937C198.179 72.9973 197.911 72.9893 197.703 72.9699C197.607 72.9389 197.515 72.892 197.426 72.8293C197.337 72.7667 197.278 72.6907 197.248 72.6013C197.181 72.4542 197.105 72.1642 197.018 71.7314C196.941 71.2873 196.855 70.762 196.761 70.1553C196.677 69.5475 196.59 68.9144 196.501 68.2558C196.42 67.586 196.349 66.9563 196.288 66.3667C196.233 65.8484 196.191 65.3904 196.159 64.9929C196.127 64.5853 196.111 64.2838 196.111 64.0886C196.158 63.8473 196.28 63.6856 196.476 63.6033C197.037 63.4625 197.569 63.3451 198.073 63.2513C198.587 63.1462 199.087 63.0682 199.575 63.0171C200.266 62.9448 200.923 62.9378 201.546 62.9959C202.177 63.0429 202.74 63.1689 203.235 63.3741C203.738 63.5681 204.147 63.849 204.463 64.2167C204.778 64.5742 204.964 65.0223 205.02 65.5611C205.085 66.1811 204.925 66.7117 204.539 67.1528C204.163 67.5826 203.666 67.9378 203.048 68.2182C203.47 68.3282 203.829 68.563 204.123 68.9226C204.428 69.2812 204.605 69.6994 204.655 70.1771C204.701 70.6142 204.602 70.9894 204.357 71.3027C204.122 71.615 203.795 71.8702 203.373 72.0684C202.964 72.2757 202.503 72.4421 201.992 72.5675C201.481 72.6928 200.973 72.7923 200.467 72.8658ZM199.983 71.9299C200.624 71.8629 201.229 71.7584 201.8 71.6165C202.381 71.4735 202.85 71.2908 203.207 71.0685C203.563 70.836 203.725 70.5673 203.693 70.2624C203.65 69.8456 203.469 69.5409 203.15 69.3481C202.841 69.1441 202.447 69.0106 201.968 68.9477C201.499 68.8838 201.008 68.8581 200.496 68.8706C200.361 68.8641 200.244 68.8199 200.143 68.7379C200.051 68.6448 200.003 68.5316 199.999 68.3984C199.981 68.2256 200.029 68.0973 200.144 68.0134C200.257 67.9193 200.411 67.8621 200.604 67.8419C201.033 67.8176 201.462 67.747 201.892 67.6301C202.32 67.5031 202.704 67.3396 203.043 67.1398C203.391 66.9287 203.653 66.6905 203.831 66.4253C204.018 66.1489 204.079 65.8496 204.015 65.5275C203.924 65.054 203.655 64.6968 203.209 64.4558C202.761 64.2046 202.221 64.0454 201.587 63.9781C200.953 63.9108 200.301 63.9123 199.63 63.9825C199.204 64.0373 198.779 64.1023 198.355 64.1775C197.932 64.2526 197.515 64.3425 197.104 64.4471C197.101 64.6118 197.108 64.832 197.127 65.1075C197.146 65.383 197.173 65.6935 197.209 66.0391C197.26 66.527 197.321 67.0602 197.392 67.6385C197.472 68.2056 197.557 68.7721 197.647 69.3382C197.737 69.9042 197.822 70.4245 197.902 70.899C197.982 71.3634 198.052 71.7363 198.112 72.0177C198.411 72.0276 198.719 72.0211 199.035 71.9983C199.352 71.9856 199.668 71.9628 199.983 71.9299ZM212.667 71.6202C212.471 71.6099 212.346 71.4945 212.292 71.2741C212.224 71.0141 212.151 70.6671 212.075 70.2332C211.999 69.7993 211.923 69.3141 211.846 68.7775C211.779 68.2398 211.712 67.692 211.643 67.134C211.573 66.5659 211.511 66.0226 211.457 65.5042C211.402 64.9756 211.353 64.5131 211.312 64.1167C211.314 63.9418 211.362 63.8083 211.455 63.7164C211.558 63.6234 211.667 63.5812 211.781 63.5898C211.903 63.5771 212.01 63.6172 212.102 63.7104C212.204 63.8025 212.262 63.9197 212.277 64.062C212.287 64.2562 212.298 64.4554 212.309 64.6598C212.329 64.8529 212.351 65.0562 212.373 65.2697C212.444 65.9507 212.54 66.6753 212.662 67.4436C212.783 68.2119 212.911 69.036 213.044 69.9161C213.92 68.6633 214.797 67.472 215.676 66.3422C216.554 65.2124 217.455 64.1471 218.378 63.1463C218.48 63.0431 218.587 62.9857 218.699 62.974C218.811 62.9623 218.917 62.9923 219.017 63.064C219.127 63.1347 219.198 63.2249 219.23 63.3346C219.32 63.7054 219.4 64.0772 219.47 64.4501C219.55 64.8219 219.621 65.2564 219.683 65.7534C219.756 66.2493 219.83 66.8581 219.905 67.5798C219.991 68.3004 220.09 69.1944 220.201 70.2617C220.218 70.4243 220.175 70.5471 220.07 70.6299C219.967 70.7229 219.859 70.7753 219.748 70.787C219.585 70.804 219.457 70.7608 219.364 70.6575C219.282 70.5633 219.236 70.4603 219.224 70.3485C219.217 70.1848 219.204 70.0064 219.183 69.8133C219.163 69.6201 219.141 69.4118 219.118 69.1882C219.067 68.7002 219.008 68.1824 218.94 67.6346C218.871 67.0766 218.799 66.5344 218.724 66.0079C218.648 65.4815 218.575 65.0267 218.504 64.6437C217.965 65.1932 217.48 65.7116 217.048 66.1986C216.626 66.6846 216.216 67.1848 215.818 67.6992C215.43 68.2125 215.021 68.7742 214.591 69.3843C214.171 69.9831 213.693 70.6702 213.158 71.4456C213.067 71.5579 212.981 71.6182 212.899 71.6268C212.869 71.6299 212.833 71.6286 212.791 71.6227C212.76 71.6259 212.719 71.625 212.667 71.6202ZM227.232 70.5743C227.1 70.5881 226.988 70.5484 226.896 70.4553C226.804 70.3622 226.75 70.2444 226.735 70.1021C226.745 69.6079 226.76 69.0566 226.778 68.4484C226.797 67.8402 226.824 67.2156 226.86 66.5748C226.894 65.9238 226.932 65.2982 226.972 64.698C227.021 64.0866 227.072 63.5418 227.124 63.0636C227.176 62.5752 227.228 62.1895 227.281 61.9066C227.309 61.7804 227.361 61.6876 227.437 61.6283C227.513 61.5689 227.596 61.5345 227.688 61.5249C227.81 61.5121 227.925 61.536 228.034 61.5965C228.083 61.5709 228.122 61.5463 228.15 61.5228C228.178 61.4993 228.217 61.4798 228.267 61.4643C228.637 61.364 229.069 61.2725 229.564 61.1899C230.068 61.0961 230.559 61.0241 231.037 60.9742C231.768 60.8976 232.379 60.8852 232.867 60.9368C233.366 60.9874 233.748 61.153 234.013 61.4334C234.288 61.7027 234.456 62.127 234.516 62.7064C234.524 62.7776 234.531 62.8487 234.539 62.9199C234.546 62.991 234.549 63.0678 234.547 63.1502C234.547 63.5407 234.555 63.9611 234.572 64.4116C234.597 64.8508 234.632 65.2889 234.678 65.726C234.744 66.3562 234.845 66.9313 234.982 67.4514C235.119 67.9714 235.299 68.3225 235.524 68.5045C235.636 68.5955 235.74 68.6515 235.834 68.6724C235.939 68.6923 236.062 68.6897 236.203 68.6646C236.344 68.6294 236.464 68.6477 236.564 68.7194C236.675 68.8003 236.738 68.9169 236.754 69.0694C236.82 69.4016 236.649 69.589 236.243 69.6316C235.704 69.6879 235.266 69.5745 234.928 69.2913C234.59 69.0081 234.334 68.6238 234.16 68.1385C234.137 68.2129 234.083 68.2853 233.998 68.3559C233.913 68.4265 233.824 68.4665 233.733 68.4761L227.71 69.1062C227.706 69.1682 227.702 69.2715 227.696 69.4159C227.701 69.5593 227.705 69.6925 227.707 69.8155C227.711 69.9487 227.715 70.0356 227.719 70.0763C227.679 70.3785 227.516 70.5445 227.232 70.5743ZM233.999 67.6313C233.942 67.4831 233.894 67.3186 233.855 67.1377C233.824 66.9457 233.798 66.7378 233.774 66.5142C233.732 66.1076 233.7 65.6588 233.68 65.1677C233.668 64.6654 233.644 64.1387 233.607 63.5877C233.607 63.4951 233.603 63.4082 233.595 63.3269C233.586 63.2456 233.578 63.1693 233.571 63.0982C233.524 62.6509 233.425 62.3377 233.272 62.1584C233.129 61.9678 232.893 61.8692 232.563 61.8626C232.232 61.8458 231.778 61.8677 231.198 61.9283C230.781 61.9719 230.341 62.0385 229.878 62.1281C229.425 62.2166 228.972 62.3102 228.52 62.4089C228.419 62.4195 228.347 62.4219 228.305 62.416C228.274 62.409 228.236 62.3975 228.194 62.3814C228.073 63.0928 227.989 63.7644 227.942 64.3961C227.895 65.0279 227.862 65.6478 227.844 66.2561C227.825 66.8643 227.793 67.4893 227.747 68.1312L233.632 67.5155C233.764 67.5017 233.887 67.5403 233.999 67.6313ZM246.602 68.3166C245.647 68.4165 244.787 68.301 244.023 67.9699C243.268 67.6378 242.655 67.1316 242.184 66.4514C241.711 65.761 241.424 64.933 241.323 63.9673C241.227 63.0525 241.334 62.214 241.645 61.4519C241.966 60.6888 242.456 60.0672 243.115 59.5873C243.783 59.0961 244.594 58.8005 245.55 58.7005C246.404 58.6112 247.193 58.7393 247.918 59.0848C248.642 59.4303 249.246 59.9426 249.728 60.6218C250.209 61.2908 250.512 62.0811 250.638 62.9927C250.666 63.257 250.541 63.4396 250.264 63.5405C250.044 63.5944 249.716 63.6544 249.281 63.7204C248.846 63.7865 248.345 63.8595 247.778 63.9393C247.21 64.0091 246.611 64.082 245.982 64.1581C245.352 64.224 244.727 64.2894 244.107 64.3543C243.487 64.4191 242.912 64.4792 242.384 64.5345C242.524 65.1878 242.787 65.7408 243.174 66.1936C243.571 66.6454 244.052 66.9701 244.617 67.1679C245.193 67.3747 245.817 67.4431 246.488 67.3729C247.088 67.3101 247.667 67.1468 248.225 66.8829C248.793 66.6179 249.262 66.2863 249.631 65.888C249.725 65.8062 249.833 65.7589 249.955 65.7462C250.098 65.7313 250.22 65.7699 250.322 65.8619C250.393 65.947 250.434 66.0455 250.445 66.1573C250.461 66.3098 250.423 66.432 250.33 66.5239C249.82 67.05 249.241 67.4599 248.593 67.7538C247.947 68.0577 247.283 68.2453 246.602 68.3166ZM242.253 63.5771C242.913 63.508 243.61 63.4352 244.342 63.3586C245.072 63.2719 245.783 63.1873 246.473 63.1048C247.162 63.0122 247.781 62.932 248.328 62.8644C248.885 62.7856 249.311 62.7257 249.604 62.6847C249.449 61.9817 249.171 61.3942 248.773 60.9221C248.374 60.45 247.891 60.1049 247.323 59.8868C246.756 59.6688 246.132 59.5953 245.451 59.6666C244.791 59.7459 244.218 59.9651 243.731 60.3243C243.245 60.6834 242.872 61.1438 242.612 61.7053C242.351 62.2567 242.231 62.8806 242.253 63.5771ZM265.545 65.9495C265.414 65.9735 265.298 65.9445 265.196 65.8626C265.095 65.7807 265.036 65.6584 265.019 65.4958C264.983 65.0475 264.933 64.5184 264.869 63.9085C264.804 63.2885 264.738 62.6633 264.673 62.0331C264.606 61.3928 264.547 60.8286 264.495 60.3407L264.361 59.06C264.259 59.0604 264.024 59.0798 263.659 59.1181C263.302 59.1452 262.874 59.1847 262.376 59.2368C261.887 59.2777 261.399 59.3237 260.911 59.3747C260.392 59.429 259.92 59.4784 259.493 59.5231C259.076 59.5667 258.802 59.6005 258.671 59.6245C258.701 60.2996 258.717 60.9915 258.719 61.7003C258.73 62.3979 258.713 63.0727 258.669 63.7248C258.623 64.3667 258.548 64.9345 258.446 65.4282C258.342 65.9117 258.201 66.2759 258.021 66.5208C257.951 66.6411 257.84 66.7093 257.688 66.7252C257.566 66.738 257.45 66.709 257.34 66.6383C257.218 66.5586 257.149 66.4424 257.134 66.29C257.122 66.1782 257.151 66.0672 257.222 65.957C257.348 65.7897 257.447 65.507 257.519 65.1091C257.59 64.7111 257.645 64.2532 257.683 63.7354C257.72 63.2074 257.741 62.6658 257.744 62.1106C257.748 61.5553 257.739 61.0321 257.719 60.541C257.707 60.0387 257.685 59.6249 257.651 59.2996C257.638 59.1777 257.667 59.0616 257.738 58.9514C257.808 58.8413 257.904 58.7747 258.025 58.7518C258.326 58.6793 258.73 58.6113 259.237 58.548C259.743 58.4745 260.286 58.4074 260.865 58.3468C261.587 58.2713 262.299 58.207 263.003 58.154C263.716 58.0999 264.293 58.0652 264.734 58.05C264.857 58.0474 264.969 58.087 265.07 58.1689C265.18 58.2396 265.241 58.3309 265.253 58.4427C265.284 58.5422 265.323 58.7693 265.37 59.124C265.417 59.4787 265.467 59.9 265.518 60.3879C265.569 60.8758 265.618 61.3947 265.665 61.9447C265.722 62.4834 265.771 63.0023 265.813 63.5015C265.854 63.9904 265.887 64.4083 265.913 64.7549C265.949 65.1005 265.972 65.3191 265.982 65.4105C265.999 65.5732 265.955 65.701 265.852 65.794C265.749 65.887 265.646 65.9388 265.545 65.9495ZM270.826 66.3372C270.768 66.3741 270.704 66.3962 270.633 66.4037C270.521 66.4154 270.414 66.3803 270.313 66.2984C270.212 66.2165 270.155 66.1094 270.141 65.9773C270.12 65.774 270.197 65.6272 270.372 65.5369C271.08 65.134 271.652 64.6066 272.087 63.9548C272.532 63.2918 272.841 62.5658 273.015 61.7769C273.199 60.9767 273.249 60.1751 273.165 59.3721C273.074 58.5081 272.862 57.7082 272.528 56.9725C272.205 56.2356 271.757 55.594 271.186 55.0474C270.624 54.4896 269.944 54.0728 269.144 53.7967C269.027 53.7576 268.944 53.7046 268.896 53.6377C268.857 53.5596 268.833 53.4799 268.825 53.3985C268.811 53.2664 268.84 53.1503 268.912 53.0503C268.994 52.9493 269.096 52.8924 269.218 52.8796C269.279 52.8732 269.341 52.8821 269.405 52.9062C270.063 53.1046 270.661 53.4171 271.199 53.8438C271.747 54.2694 272.221 54.7747 272.622 55.3597C273.031 55.9334 273.358 56.5568 273.603 57.2299C273.848 57.903 274.007 58.5852 274.079 59.2764C274.151 59.9574 274.13 60.648 274.019 61.3482C273.917 62.0473 273.725 62.7148 273.442 63.3507C273.159 63.9865 272.798 64.5587 272.358 65.0672C271.919 65.5858 271.408 66.0091 270.826 66.3372ZM278.449 65.5396C278.392 65.5765 278.327 65.5987 278.256 65.6061C278.144 65.6178 278.038 65.5827 277.937 65.5008C277.836 65.4189 277.778 65.3119 277.764 65.1797C277.743 64.9764 277.82 64.8296 277.996 64.7393C278.704 64.3364 279.275 63.8091 279.711 63.1573C280.155 62.4942 280.465 61.7682 280.639 60.9793C280.822 60.1791 280.872 59.3775 280.788 58.5745C280.698 57.7105 280.486 56.9107 280.152 56.1749C279.828 55.4381 279.381 54.7964 278.81 54.2498C278.248 53.6921 277.567 53.2752 276.768 52.9992C276.65 52.9601 276.568 52.907 276.52 52.8401C276.481 52.762 276.457 52.6823 276.448 52.601C276.435 52.4688 276.464 52.3528 276.535 52.2528C276.617 52.1517 276.719 52.0948 276.841 52.0821C276.902 52.0757 276.965 52.0846 277.029 52.1087C277.687 52.307 278.285 52.6195 278.822 53.0462C279.371 53.4719 279.845 53.9772 280.245 54.5621C280.654 55.1358 280.982 55.7592 281.227 56.4324C281.472 57.1055 281.631 57.7876 281.703 58.4788C281.774 59.1599 281.754 59.8505 281.642 60.5506C281.541 61.2497 281.348 61.9172 281.066 62.5531C280.783 63.189 280.421 63.7611 279.981 64.2696C279.542 64.7882 279.032 65.2116 278.449 65.5396Z" fill="#966BDA"/>
<path d="M6.47314 71.9812C6.39744 71.9381 6.34083 71.8829 6.30331 71.8156C6.2769 71.7573 6.26057 71.6979 6.2543 71.6375C6.24072 71.5066 6.27003 71.3967 6.34223 71.3078L8.93954 67.6494L5.6466 64.6019C5.5556 64.5096 5.50436 64.4081 5.49287 64.2973C5.4772 64.1463 5.52508 64.0192 5.63651 63.916C5.73891 63.824 5.84045 63.7728 5.94114 63.7623C6.08211 63.7477 6.2092 63.7956 6.32242 63.9059L9.4971 66.8435L12.0012 63.3169C12.0995 63.1845 12.214 63.1116 12.3449 63.098C12.4557 63.0865 12.5656 63.1158 12.6746 63.1859C12.8069 63.2842 12.8799 63.3987 12.8934 63.5296C12.9049 63.6404 12.8756 63.7503 12.8055 63.8593L10.1931 67.5193L13.5011 70.5651C13.5821 70.6585 13.6283 70.7606 13.6398 70.8713C13.6565 71.0324 13.6136 71.159 13.5112 71.2511C13.4481 71.3289 13.346 71.3751 13.205 71.3897C13.1346 71.397 13.0625 71.3892 12.9889 71.3663C12.9264 71.3524 12.8719 71.3174 12.8253 71.2611L9.65221 68.3387L7.14652 71.8502C7.05732 71.9714 6.9372 72.0399 6.78617 72.0555C6.65528 72.0691 6.55093 72.0443 6.47314 71.9812ZM25.335 70.2993C24.7813 70.3568 24.2202 70.3437 23.6518 70.2602C23.0945 70.1857 22.5042 70.0383 21.8809 69.818C21.775 69.7781 21.6972 69.7149 21.6475 69.6285C21.5989 69.5521 21.5704 69.4737 21.562 69.3931C21.5484 69.2622 21.5828 69.1518 21.665 69.0618C21.7462 68.9618 21.8473 68.9055 21.9681 68.893C22.0386 68.8857 22.1106 68.8935 22.1842 68.9164C23.3419 69.2848 24.3588 69.4236 25.2348 69.3327C25.5962 69.285 25.9323 69.1891 26.243 69.0449C26.5627 68.8896 26.8134 68.7059 26.9949 68.4937C27.1754 68.2714 27.2526 68.0344 27.2265 67.7827C27.1951 67.4806 27.0668 67.2243 26.8414 67.0136C26.626 66.8018 26.3545 66.6366 26.0267 66.518C25.7089 66.3983 25.3803 66.3204 25.0407 66.2844C24.7928 66.2491 24.6552 66.1005 24.6281 65.8387C24.6103 65.6675 24.6526 65.5359 24.755 65.4439C24.8564 65.3418 24.9585 65.2956 25.0612 65.3053C25.6876 65.2607 26.1754 65.0574 26.5246 64.6955C26.8838 64.3326 27.0379 63.9044 26.9867 63.411C26.9418 62.9781 26.7879 62.6226 26.5249 62.3445C26.261 62.0564 25.9243 61.8522 25.5149 61.7318C25.1055 61.6115 24.6642 61.5758 24.191 61.6249C23.6472 61.6813 23.0832 61.8365 22.499 62.0905C21.9247 62.3434 21.3934 62.6173 20.905 62.9123C20.8376 62.9498 20.7637 62.9727 20.6831 62.9811C20.5522 62.9947 20.4363 62.9558 20.3352 62.8645C20.2341 62.7732 20.1773 62.6672 20.1648 62.5463C20.146 62.3651 20.222 62.2147 20.3928 62.0953C20.9486 61.7628 21.5634 61.4599 22.2373 61.1864C22.9111 60.913 23.54 60.746 24.124 60.6854C24.7986 60.6154 25.4108 60.6791 25.9605 60.8765C26.5192 61.0628 26.9726 61.3618 27.3206 61.7735C27.6686 62.1852 27.8745 62.6981 27.9382 63.3123C27.9894 63.8057 27.906 64.2774 27.6881 64.7275C27.4802 65.1765 27.1703 65.5241 26.7582 65.7704C27.195 65.9592 27.5324 66.2193 27.7704 66.5508C28.0072 66.8723 28.1461 67.2293 28.1868 67.622C28.2338 68.0751 28.1296 68.493 27.8741 68.8757C27.6187 69.2584 27.2648 69.575 26.8125 69.8255C26.3712 70.085 25.8788 70.2429 25.335 70.2993ZM45.6793 67.8073C45.5384 67.8219 45.4229 67.7881 45.3329 67.7058C45.2531 67.6225 45.1978 67.5315 45.1672 67.4329C45.0904 67.0847 45.0174 66.675 44.9482 66.2039C44.888 65.7216 44.8307 65.2187 44.7764 64.6951C44.7001 63.9601 44.6324 63.2089 44.5731 62.4416C44.5229 61.6632 44.4739 60.9457 44.4262 60.2891C44.4292 60.0242 44.5601 59.8631 44.8187 59.8057C45.4711 59.7177 46.1285 59.6291 46.791 59.54C47.4635 59.4499 48.1119 59.3725 48.7362 59.3077C49.4209 59.2367 50.0568 59.186 50.6439 59.1556C51.231 59.1252 51.7246 59.1249 52.1246 59.1547C52.3815 59.1789 52.5281 59.3164 52.5642 59.567C52.5973 59.7875 52.6295 60.0488 52.6608 60.3508C52.7012 60.6418 52.7396 60.9635 52.7762 61.3159C52.8389 61.92 52.9002 62.5599 52.9601 63.2356C53.0189 63.9011 53.0691 64.532 53.1106 65.1282C53.1521 65.7243 53.1821 66.2097 53.2006 66.5843C53.177 66.7496 53.1186 66.8727 53.0252 66.9536C52.9328 67.0446 52.8353 67.0853 52.7325 67.0756C52.5895 67.0701 52.473 67.0262 52.383 66.9439C52.2931 66.8617 52.2453 66.7445 52.2397 66.5924C52.2417 66.3174 52.2232 65.9428 52.1842 65.4685C52.1552 64.9932 52.116 64.468 52.0665 63.8931C52.0171 63.3181 51.9636 62.7537 51.9062 62.2C51.8633 61.7871 51.8181 61.4 51.7704 61.0386C51.7318 60.666 51.6944 60.3544 51.6582 60.1037C51.4335 60.0965 51.1238 60.1032 50.7291 60.1238C50.3443 60.1433 49.9149 60.1726 49.4406 60.2117C48.9663 60.2507 48.4875 60.2953 48.0042 60.3454C47.4706 60.4007 46.9682 60.463 46.497 60.5323C46.0349 60.5904 45.669 60.6436 45.3992 60.692C45.4319 61.1058 45.4691 61.6108 45.5105 62.207C45.5611 62.792 45.6176 63.3866 45.6803 63.9907C45.7482 64.6452 45.8175 65.2639 45.8881 65.8468C45.9688 66.4287 46.0415 66.8843 46.1062 67.2134C46.1431 67.3724 46.1214 67.507 46.0412 67.6171C45.9711 67.7261 45.8505 67.7895 45.6793 67.8073ZM64.4127 66.5051C63.4763 66.6023 62.6403 66.4905 61.9049 66.1699C61.1794 65.8482 60.5889 65.3549 60.1331 64.6897C59.6864 64.0135 59.413 63.1921 59.3127 62.2255C59.2124 61.2589 59.3064 60.3993 59.5948 59.6468C59.8831 58.8943 60.3492 58.2862 60.9932 57.8225C61.6371 57.3588 62.4474 57.0763 63.4241 56.975C64.431 56.8705 65.2971 56.9791 66.0225 57.3008C66.7479 57.6225 67.3239 58.1225 67.7505 58.8008C68.176 59.469 68.4394 60.2915 68.5407 61.2682C68.7016 62.8188 68.4261 64.0381 67.7142 64.9261C67.0134 65.8232 65.9129 66.3495 64.4127 66.5051ZM64.314 65.5536C65.5726 65.4231 66.466 65.0098 66.9943 64.3138C67.5225 63.6179 67.7209 62.6356 67.5892 61.3669C67.465 60.1687 67.0607 59.2642 66.3765 58.6533C65.6924 58.0424 64.7411 57.8001 63.5228 57.9265C62.3045 58.0529 61.4242 58.4953 60.8821 59.2538C60.3389 60.0022 60.1279 60.9603 60.2491 62.1283C60.3702 63.2963 60.7835 64.1897 61.4889 64.8086C62.2043 65.4264 63.146 65.6748 64.314 65.5536ZM82.4225 64.8506C82.1104 64.883 81.9361 64.723 81.8995 64.3705C81.8849 64.2296 81.869 64.0277 81.8519 63.7649C81.8349 63.502 81.8117 63.2296 81.7824 62.9477C81.3329 63.1267 80.8706 63.2815 80.3956 63.4122C79.9207 63.5428 79.4567 63.6317 79.0036 63.6787C78.0571 63.7769 77.2665 63.6604 76.6317 63.3294C76.0059 62.9872 75.5205 62.4778 75.1756 61.8012C74.8296 61.1145 74.6075 60.2979 74.5093 59.3515C74.4414 58.697 74.4167 58.0177 74.4353 57.3135C74.4397 57.1604 74.4987 57.0423 74.6122 56.9593C74.7258 56.8763 74.8339 56.8396 74.9367 56.8493C75.0686 56.8458 75.1806 56.8953 75.2726 56.9977C75.3636 57.09 75.4064 57.2077 75.4009 57.3508C75.3951 57.6872 75.3978 58.0075 75.409 58.3117C75.4302 58.6148 75.4555 58.9073 75.4847 59.1892C75.5693 60.0048 75.732 60.6901 75.9728 61.2453C76.2236 61.7993 76.5862 62.2044 77.0606 62.4605C77.545 62.7156 78.1749 62.8029 78.9502 62.7225C79.3932 62.6765 79.8466 62.5837 80.3105 62.444C80.7733 62.2942 81.2289 62.1248 81.6775 61.9358C81.5782 60.9793 81.4928 60.2045 81.4211 59.6115C81.3584 59.0073 81.3093 58.5341 81.2738 58.1918C81.2383 57.8494 81.2117 57.5927 81.1939 57.4215C81.1751 57.2403 81.161 57.1043 81.1516 57.0137C81.1422 56.9231 81.1267 56.8229 81.1052 56.7132C81.0906 56.5723 81.1188 56.4523 81.19 56.3533C81.2601 56.2443 81.3706 56.1819 81.5217 56.1662C81.6606 56.1315 81.78 56.1547 81.88 56.2359C81.98 56.3172 82.0424 56.4277 82.0671 56.5676L82.8693 64.3005C82.886 64.4616 82.8431 64.5882 82.7407 64.6802C82.6394 64.7823 82.5333 64.8391 82.4225 64.8506ZM94.5905 63.3899C93.644 63.4881 92.7924 63.3729 92.0358 63.0443C91.2892 62.7146 90.6825 62.2128 90.2156 61.5386C89.7477 60.8544 89.4642 60.034 89.3649 59.0775C89.2709 58.1713 89.3782 57.3409 89.6866 56.5863C90.0052 55.8307 90.4909 55.2155 91.1439 54.7407C91.8059 54.2547 92.6101 53.9627 93.5566 53.8645C94.4023 53.7767 95.1839 53.9043 95.9014 54.2471C96.6188 54.59 97.216 55.0979 97.6929 55.7711C98.1688 56.4341 98.4688 57.2171 98.593 58.1202C98.6202 58.382 98.4964 58.5627 98.2218 58.6625C98.0034 58.7157 97.6788 58.7748 97.2479 58.8398C96.8171 58.9049 96.3208 58.9767 95.759 59.0553C95.1962 59.1239 94.6032 59.1956 93.98 59.2704C93.3557 59.3352 92.7365 59.3994 92.1223 59.4631C91.5081 59.5268 90.9392 59.5859 90.4156 59.6402C90.554 60.2873 90.8144 60.8353 91.1968 61.2842C91.5892 61.732 92.0654 62.054 92.6251 62.2504C93.196 62.4558 93.8137 62.524 94.4782 62.4551C95.0723 62.3934 95.6458 62.2322 96.1989 61.9713C96.762 61.7093 97.2266 61.3812 97.5928 60.9871C97.6862 60.9061 97.7933 60.8594 97.9141 60.8469C98.0551 60.8322 98.1761 60.8706 98.2772 60.9619C98.347 61.0462 98.3876 61.1438 98.3991 61.2545C98.4148 61.4056 98.3764 61.5266 98.2841 61.6176C97.7784 62.1382 97.2047 62.5437 96.5632 62.8342C95.9226 63.1347 95.2651 63.3199 94.5905 63.3899ZM90.2867 58.6918C90.9412 58.6239 91.6309 58.5524 92.3558 58.4772C93.0797 58.3919 93.7835 58.3087 94.4671 58.2276C95.1497 58.1365 95.7624 58.0576 96.305 57.9912C96.8567 57.9136 97.2781 57.8546 97.569 57.8142C97.4153 57.1178 97.1412 56.5356 96.7467 56.0677C96.3521 55.5997 95.8739 55.2575 95.312 55.041C94.7502 54.8245 94.132 54.7513 93.4574 54.8212C92.8039 54.8992 92.2361 55.1159 91.754 55.4712C91.2718 55.8265 90.9018 56.2822 90.644 56.8381C90.3851 57.384 90.266 58.0019 90.2867 58.6918ZM113.811 61.045C113.781 61.0481 113.734 61.0427 113.672 61.0288C113.536 60.9921 113.427 60.927 113.346 60.8336C113.276 60.7392 113.248 60.625 113.265 60.491C113.351 60.0444 113.398 59.5613 113.405 59.0415C113.411 58.5116 113.387 57.9849 113.332 57.4614C113.301 57.1593 113.261 56.8683 113.211 56.5885C113.161 56.2986 113.102 56.0248 113.035 55.7672C112.947 55.41 112.822 55.0871 112.659 54.7986C112.496 54.5001 112.294 54.2717 112.054 54.1134C111.813 53.9451 111.521 53.8787 111.178 53.9142C110.826 53.9507 110.541 54.0973 110.323 54.354C110.106 54.6106 109.941 54.9381 109.83 55.3364C109.729 55.7336 109.657 56.1736 109.616 56.6562C109.608 56.8808 109.477 57.0319 109.22 57.1094C108.958 57.1366 108.784 57.0224 108.696 56.7669C108.559 56.3332 108.386 55.934 108.175 55.5691C107.963 55.1942 107.724 54.8984 107.457 54.6819C107.189 54.4552 106.884 54.3596 106.542 54.3952C106.23 54.4275 105.974 54.566 105.776 54.8105C105.577 55.055 105.431 55.3652 105.338 55.7413C105.255 56.1163 105.205 56.5184 105.188 56.9475C105.172 57.3767 105.184 57.7926 105.226 58.1954C105.279 58.7089 105.364 59.2294 105.48 59.7567C105.595 60.2841 105.73 60.7943 105.883 61.2873C105.921 61.4564 105.904 61.5904 105.833 61.6894C105.772 61.7873 105.682 61.8526 105.563 61.8853C105.426 61.9402 105.302 61.9225 105.191 61.8323C105.081 61.7521 105.011 61.6627 104.98 61.5641C104.826 61.061 104.686 60.5413 104.559 60.0049C104.441 59.4574 104.354 58.9118 104.298 58.3681C104.237 57.7841 104.224 57.2155 104.258 56.6624C104.291 56.0992 104.386 55.5857 104.541 55.1217C104.706 54.6568 104.947 54.2756 105.262 53.9783C105.587 53.68 106.007 53.5042 106.52 53.4509C106.872 53.4144 107.209 53.466 107.528 53.6058C107.848 53.7457 108.128 53.9406 108.368 54.1905C108.616 54.4293 108.807 54.6995 108.94 55.0012C109.142 54.4001 109.414 53.9293 109.755 53.5885C110.106 53.2367 110.558 53.0321 111.111 52.9746C111.625 52.9214 112.066 53.0028 112.434 53.219C112.802 53.4252 113.109 53.7343 113.355 54.1464C113.6 54.5484 113.796 55.0165 113.943 55.5508C114.024 55.8376 114.092 56.1461 114.146 56.4763C114.211 56.8054 114.261 57.1411 114.296 57.4835C114.354 58.0373 114.376 58.5897 114.362 59.1407C114.358 59.6907 114.308 60.1945 114.213 60.6521C114.194 60.766 114.143 60.8579 114.058 60.9277C113.984 60.9965 113.902 61.0356 113.811 61.045ZM121.816 61.1C121.706 61.0198 121.644 60.9143 121.63 60.7834C121.617 60.6525 121.65 60.532 121.73 60.4219C121.937 60.1562 122.176 59.8159 122.449 59.4009C122.722 58.996 122.995 58.586 123.268 58.171C123.549 57.7449 123.786 57.3794 123.978 57.0745C123.844 56.9561 123.635 56.7539 123.351 56.4679C123.066 56.1819 122.748 55.8587 122.395 55.4984C122.041 55.1281 121.693 54.7622 121.35 54.4009C121.017 54.0385 120.725 53.7228 120.473 53.4537C120.23 53.1736 120.078 52.9808 120.016 52.8752C119.969 52.8089 119.941 52.7355 119.932 52.655C119.915 52.4838 119.981 52.3345 120.13 52.207C120.196 52.1594 120.27 52.1314 120.35 52.1231C120.512 52.1064 120.66 52.1673 120.797 52.3058C120.892 52.4384 121.05 52.6357 121.27 52.8978C121.501 53.1588 121.766 53.452 122.064 53.7772C122.371 54.0914 122.679 54.4105 122.988 54.7348C123.306 55.0579 123.601 55.353 123.873 55.6199C124.145 55.8868 124.354 56.089 124.501 56.2265C124.795 55.7278 125.051 55.2942 125.267 54.9258C125.483 54.5573 125.677 54.2167 125.848 53.9038C126.018 53.5808 126.182 53.2483 126.34 52.9063C126.496 52.5541 126.664 52.1552 126.841 51.7093C126.881 51.6034 126.939 51.5261 127.016 51.4775C127.092 51.4288 127.171 51.4004 127.251 51.392C127.332 51.3836 127.404 51.3914 127.467 51.4154C127.659 51.4973 127.764 51.6288 127.783 51.8101C127.79 51.8805 127.783 51.9576 127.761 52.0413C127.594 52.4861 127.353 53.0148 127.04 53.6274C126.737 54.2389 126.388 54.8909 125.991 55.5834C125.604 56.2647 125.201 56.9426 124.783 57.617C124.364 58.2914 123.956 58.9239 123.56 59.5146C123.163 60.1054 122.808 60.6053 122.494 61.0144C122.394 61.1265 122.278 61.1894 122.147 61.203C122.026 61.2155 121.916 61.1812 121.816 61.1ZM153.073 56.9721C153.043 56.9752 152.997 56.9698 152.934 56.956C152.798 56.9192 152.69 56.8541 152.609 56.7608C152.538 56.6663 152.511 56.5521 152.528 56.4181C152.613 55.9716 152.66 55.4884 152.667 54.9686C152.673 54.4388 152.649 53.9121 152.595 53.3885C152.564 53.0864 152.523 52.7955 152.474 52.5156C152.423 52.2257 152.364 51.952 152.297 51.6944C152.209 51.3371 152.084 51.0142 151.922 50.7257C151.758 50.4272 151.557 50.1988 151.316 50.0405C151.075 49.8722 150.783 49.8058 150.441 49.8413C150.088 49.8779 149.803 50.0245 149.586 50.2811C149.368 50.5378 149.204 50.8652 149.092 51.2635C148.991 51.6607 148.92 52.1007 148.878 52.5833C148.871 52.808 148.739 52.959 148.482 53.0365C148.221 53.0637 148.046 52.9495 147.958 52.694C147.822 52.2604 147.648 51.8611 147.437 51.4963C147.225 51.1213 146.986 50.8256 146.719 50.609C146.452 50.3823 146.146 50.2868 145.804 50.3223C145.492 50.3547 145.237 50.4931 145.038 50.7376C144.84 50.9821 144.694 51.2924 144.6 51.6684C144.517 52.0434 144.467 52.4455 144.451 52.8747C144.434 53.3038 144.447 53.7198 144.489 54.1225C144.542 54.636 144.626 55.1565 144.742 55.6839C144.858 56.2112 144.992 56.7214 145.145 57.2144C145.183 57.3835 145.166 57.5175 145.095 57.6165C145.034 57.7144 144.944 57.7797 144.826 57.8124C144.689 57.8673 144.565 57.8496 144.454 57.7594C144.344 57.6792 144.273 57.5898 144.243 57.4912C144.089 56.9882 143.948 56.4684 143.821 55.932C143.704 55.3845 143.616 54.8389 143.56 54.2952C143.499 53.7112 143.486 53.1426 143.52 52.5895C143.554 52.0263 143.648 51.5128 143.803 51.0489C143.969 50.5839 144.209 50.2028 144.524 49.9055C144.85 49.6071 145.269 49.4313 145.783 49.378C146.135 49.3415 146.471 49.3931 146.791 49.533C147.111 49.6728 147.39 49.8677 147.63 50.1176C147.879 50.3564 148.07 50.6267 148.203 50.9284C148.405 50.3273 148.677 49.8564 149.018 49.5157C149.368 49.1638 149.82 48.9592 150.374 48.9018C150.887 48.8485 151.328 48.93 151.697 49.1462C152.064 49.3523 152.371 49.6614 152.617 50.0735C152.863 50.4755 153.059 50.9436 153.206 51.478C153.286 51.7647 153.354 52.0732 153.409 52.4034C153.473 52.7325 153.523 53.0683 153.559 53.4106C153.616 53.9644 153.638 54.5168 153.624 55.0678C153.62 55.6178 153.57 56.1216 153.475 56.5793C153.457 56.6932 153.405 56.785 153.321 56.8548C153.247 56.9236 153.164 56.9627 153.073 56.9721ZM167.689 55.8529C167.482 55.8234 167.359 55.7599 167.318 55.6624C167.278 55.5749 167.25 55.4506 167.233 55.2895C166.179 55.8162 165.138 56.1328 164.111 56.2393C163.326 56.3208 162.602 56.2635 161.941 56.0675C161.279 55.8715 160.729 55.5215 160.29 55.0175C159.86 54.5024 159.602 53.8269 159.515 52.9912C159.427 52.1454 159.627 51.4225 160.114 50.8224C160.6 50.2122 161.265 49.7464 162.106 49.425C162.568 49.2651 163.036 49.1607 163.509 49.1116C164.043 49.0562 164.577 49.0618 165.114 49.1283C165.66 49.1938 166.176 49.3132 166.662 49.4867C166.34 48.6348 165.822 48.0625 165.11 47.77C164.408 47.4765 163.584 47.3788 162.637 47.477C162.214 47.5209 161.779 47.5965 161.333 47.7039C160.885 47.8013 160.459 47.9166 160.056 48.0501C159.938 48.0928 159.815 48.0852 159.687 48.0273C159.568 47.9582 159.486 47.8598 159.443 47.732C159.418 47.5921 159.43 47.4637 159.479 47.3466C159.537 47.2185 159.631 47.1426 159.761 47.119C160.796 46.7978 161.731 46.5939 162.567 46.5072C164.128 46.3454 165.357 46.6198 166.255 47.3307C167.152 48.0314 167.737 49.1564 168.01 50.7056C168.066 50.9541 168.112 51.2546 168.149 51.6071C168.19 51.9997 168.219 52.4292 168.237 52.8955C168.255 53.3618 168.261 53.8141 168.256 54.2522C168.25 54.6904 168.233 55.0687 168.205 55.3871C168.203 55.5604 168.144 55.6784 168.028 55.7413C167.923 55.8032 167.81 55.8403 167.689 55.8529ZM163.035 55.2823C163.22 55.3038 163.404 55.3102 163.586 55.3015C163.77 55.3028 163.952 55.2941 164.133 55.2753C164.667 55.2199 165.193 55.0941 165.712 54.8977C166.231 54.7014 166.751 54.4643 167.272 54.1864C167.273 53.7079 167.268 53.2658 167.256 52.8599C167.255 52.4529 167.235 52.0632 167.196 51.6907C167.178 51.5195 167.156 51.3539 167.129 51.1938C167.101 51.0237 167.069 50.8591 167.032 50.7001C167.032 50.7001 167.027 50.7006 167.017 50.7017C167.017 50.7017 167.017 50.6966 167.015 50.6866C166.48 50.4267 165.916 50.2459 165.326 50.1444C164.744 50.0317 164.177 50.0041 163.623 50.0615C163.452 50.0793 163.281 50.1071 163.112 50.145C162.942 50.1728 162.774 50.2157 162.607 50.2738C161.929 50.5069 161.39 50.858 160.991 51.3268C160.592 51.7956 160.426 52.3523 160.492 52.9967C160.572 53.7619 160.848 54.3184 161.322 54.6662C161.806 55.0129 162.377 55.2183 163.035 55.2823ZM179.629 54.5532C178.663 54.6535 177.807 54.5438 177.061 54.2242C176.327 53.9137 175.731 53.4259 175.276 52.7607C174.82 52.0956 174.544 51.2999 174.448 50.3735C174.351 49.4371 174.457 48.5967 174.767 47.8522C175.076 47.1077 175.563 46.5076 176.228 46.0518C176.893 45.586 177.703 45.3035 178.659 45.2043C179.374 45.1301 180.008 45.161 180.562 45.297C181.115 45.4329 181.631 45.6899 182.107 46.0679C182.219 46.1581 182.28 46.2636 182.293 46.3845C182.304 46.4952 182.271 46.6107 182.191 46.7308C182.131 46.8388 182.036 46.8996 181.905 46.9132C181.774 46.9268 181.649 46.894 181.528 46.8149C181.152 46.5181 180.724 46.3233 180.247 46.2304C179.768 46.1274 179.272 46.1025 178.758 46.1558C177.993 46.2352 177.344 46.4551 176.811 46.8157C176.289 47.1752 175.901 47.6531 175.647 48.2493C175.403 48.8344 175.32 49.5096 175.399 50.2748C175.476 51.0099 175.709 51.6421 176.1 52.1714C176.491 52.7008 176.984 53.0923 177.58 53.346C178.187 53.5986 178.837 53.6889 179.532 53.6168C180.056 53.5625 180.575 53.417 181.09 53.1804C181.606 52.9539 182.001 52.6432 182.275 52.2483C182.346 52.1494 182.453 52.0926 182.593 52.0779C182.714 52.0654 182.829 52.0892 182.937 52.1492C183.045 52.2092 183.106 52.3097 183.121 52.4507C183.133 52.5715 183.105 52.6915 183.036 52.8106C182.603 53.344 182.105 53.7468 181.543 54.0188C180.982 54.3009 180.344 54.479 179.629 54.5532ZM191.197 53.0479C191.046 53.0635 190.93 53.0247 190.849 52.9313C190.769 52.848 190.714 52.757 190.683 52.6584C190.647 52.4994 190.606 52.2543 190.561 51.9231C190.517 51.5919 190.459 51.1297 190.387 50.5367C190.315 49.9437 190.231 49.179 190.134 48.2426C190.036 47.2961 189.915 46.1332 189.772 44.7538C189.755 44.5927 189.799 44.4711 189.902 44.3892C190.004 44.2971 190.111 44.2454 190.222 44.2339C190.394 44.2262 190.521 44.2741 190.603 44.3775C190.684 44.4709 190.73 44.5729 190.742 44.6837C190.751 44.7743 190.765 44.9611 190.785 45.2441C190.814 45.526 190.849 45.8684 190.891 46.2711C190.932 46.6638 190.97 47.0822 191.006 47.5262C191.052 47.9693 191.096 48.3972 191.139 48.81C191.863 48.7247 192.553 48.5565 193.209 48.3053C193.875 48.053 194.457 47.7331 194.956 47.3454C195.454 46.9477 195.825 46.4971 196.068 45.9936C196.31 45.48 196.38 44.9283 196.278 44.3384C196.246 44.0363 196.385 43.854 196.694 43.7914C196.996 43.7601 197.179 43.8989 197.241 44.2079C197.352 45.0818 197.215 45.8645 196.828 46.5559C196.442 47.2473 195.909 47.842 195.227 48.3401C195.953 48.9569 196.578 49.5333 197.101 50.0692C197.634 50.594 197.986 51.041 198.156 51.41C198.193 51.4673 198.215 51.5312 198.222 51.6017C198.235 51.7225 198.2 51.8329 198.119 51.9329C198.039 52.043 197.918 52.1064 197.757 52.1231C197.556 52.144 197.404 52.058 197.303 51.8649C197.141 51.5764 196.883 51.2521 196.53 50.8917C196.186 50.5203 195.818 50.1566 195.425 49.8004C195.031 49.4342 194.673 49.1253 194.352 48.8737C194.198 48.9609 193.989 49.0538 193.724 49.1525C193.46 49.2512 193.169 49.3474 192.853 49.4413C192.546 49.524 192.249 49.5956 191.96 49.6561C191.681 49.7156 191.446 49.7552 191.255 49.775C191.35 50.4979 191.419 51.0708 191.463 51.4937C191.516 51.9055 191.57 52.2306 191.626 52.4691C191.661 52.6181 191.639 52.7476 191.559 52.8577C191.489 52.9667 191.368 53.0301 191.197 53.0479ZM209.398 51.4652C208.461 51.5623 207.625 51.4506 206.89 51.1299C206.164 50.8083 205.574 50.3149 205.118 49.6498C204.671 48.9735 204.398 48.1521 204.298 47.1855C204.197 46.2189 204.291 45.3594 204.58 44.6069C204.868 43.8544 205.334 43.2463 205.978 42.7826C206.622 42.3189 207.432 42.0364 208.409 41.935C209.416 41.8306 210.282 41.9392 211.007 42.2609C211.733 42.5825 212.309 43.0825 212.735 43.7608C213.161 44.4291 213.424 45.2516 213.526 46.2282C213.687 47.7788 213.411 48.9981 212.699 49.8862C211.998 50.7832 210.898 51.3095 209.398 51.4652ZM209.299 50.5137C210.558 50.3831 211.451 49.9698 211.979 49.2739C212.507 48.5779 212.706 47.5956 212.574 46.3269C212.45 45.1287 212.046 44.2242 211.361 43.6133C210.677 43.0024 209.726 42.7602 208.508 42.8865C207.289 43.0129 206.409 43.4553 205.867 44.2138C205.324 44.9622 205.113 45.9204 205.234 47.0884C205.355 48.2563 205.768 49.1498 206.474 49.7687C207.189 50.3865 208.131 50.6348 209.299 50.5137ZM224.422 49.7235C224.281 49.7381 224.16 49.7048 224.06 49.6236C223.96 49.5424 223.903 49.4313 223.888 49.2903L223.186 42.5241C222.985 42.545 222.709 42.5787 222.357 42.6253C222.005 42.6619 221.638 42.705 221.256 42.7548C220.875 42.8046 220.533 42.8501 220.232 42.8916C219.93 42.9229 219.729 42.9488 219.63 42.9693C219.499 42.9829 219.384 42.9541 219.285 42.883C219.195 42.8007 219.133 42.6952 219.099 42.5664C219.068 42.2643 219.202 42.0825 219.501 42.021C219.71 41.9789 220.036 41.9349 220.479 41.8889C220.921 41.8329 221.429 41.7751 222.003 41.7156C222.586 41.6449 223.175 41.5788 223.769 41.5172C224.554 41.4357 225.3 41.3634 226.006 41.3004C226.71 41.2273 227.25 41.1764 227.623 41.1479C227.764 41.1332 227.885 41.1716 227.986 41.2628C228.096 41.343 228.149 41.4546 228.143 41.5977C228.16 41.7588 228.117 41.8854 228.015 41.9774C227.921 42.0583 227.819 42.1045 227.708 42.116C227.525 42.1147 227.297 42.1281 227.026 42.1563C226.753 42.1745 226.39 42.207 225.937 42.254C225.484 42.301 224.884 42.3632 224.139 42.4405L224.84 49.1916C224.853 49.3225 224.819 49.4379 224.738 49.538C224.668 49.647 224.563 49.7088 224.422 49.7235ZM249.098 47.3469C248.131 47.4471 247.275 47.3375 246.53 47.0179C245.795 46.7074 245.2 46.2195 244.745 45.5544C244.289 44.8893 244.013 44.0935 243.917 43.1672C243.82 42.2308 243.926 41.3904 244.235 40.6459C244.545 39.9013 245.032 39.3012 245.697 38.8455C246.361 38.3797 247.172 38.0972 248.128 37.998C248.843 37.9238 249.477 37.9547 250.031 38.0907C250.584 38.2266 251.099 38.4836 251.576 38.8615C251.687 38.9518 251.749 39.0573 251.762 39.1781C251.773 39.2889 251.739 39.4044 251.66 39.5245C251.6 39.6325 251.505 39.6933 251.374 39.7069C251.243 39.7205 251.118 39.6877 250.997 39.6086C250.621 39.3118 250.193 39.117 249.715 39.024C249.237 38.9211 248.74 38.8962 248.227 38.9495C247.462 39.0288 246.813 39.2488 246.28 39.6094C245.758 39.9689 245.37 40.4468 245.116 41.043C244.872 41.6281 244.789 42.3033 244.868 43.0685C244.945 43.8035 245.178 44.4357 245.569 44.9651C245.96 45.4945 246.453 45.886 247.049 46.1397C247.656 46.3923 248.306 46.4825 249.001 46.4105C249.525 46.3561 250.044 46.2107 250.559 45.9741C251.074 45.7476 251.47 45.4369 251.744 45.042C251.815 44.943 251.921 44.8862 252.062 44.8716C252.183 44.8591 252.298 44.8828 252.406 44.9429C252.514 45.0029 252.575 45.1034 252.59 45.2444C252.602 45.3652 252.574 45.4852 252.505 45.6043C252.072 46.1377 251.574 46.5405 251.012 46.8125C250.451 47.0946 249.813 47.2727 249.098 47.3469ZM275.726 44.7983C275.414 44.8307 275.239 44.6707 275.203 44.3183C275.188 44.1773 275.172 43.9754 275.155 43.7126C275.138 43.4498 275.115 43.1774 275.086 42.8955C274.636 43.0744 274.174 43.2292 273.699 43.3599C273.224 43.4906 272.76 43.5794 272.307 43.6264C271.361 43.7246 270.57 43.6082 269.935 43.2771C269.309 42.9349 268.824 42.4256 268.479 41.7489C268.133 41.0623 267.911 40.2457 267.813 39.2992C267.745 38.6447 267.72 37.9654 267.739 37.2613C267.743 37.1082 267.802 36.9901 267.916 36.9071C268.029 36.8241 268.137 36.7874 268.24 36.7971C268.372 36.7936 268.484 36.843 268.576 36.9454C268.667 37.0378 268.71 37.1554 268.704 37.2985C268.698 37.6349 268.701 37.9553 268.712 38.2594C268.734 38.5625 268.759 38.855 268.788 39.137C268.873 39.9525 269.035 40.6379 269.276 41.193C269.527 41.7471 269.89 42.1522 270.364 42.4083C270.848 42.6633 271.478 42.7507 272.254 42.6702C272.697 42.6243 273.15 42.5314 273.614 42.3917C274.077 42.242 274.532 42.0726 274.981 41.8835C274.882 40.927 274.796 40.1522 274.725 39.5592C274.662 38.9551 274.613 38.4819 274.577 38.1395C274.542 37.7972 274.515 37.5404 274.497 37.3693C274.479 37.188 274.464 37.0521 274.455 36.9615C274.446 36.8708 274.43 36.7707 274.409 36.661C274.394 36.52 274.422 36.4 274.493 36.3011C274.563 36.192 274.674 36.1297 274.825 36.114C274.964 36.0792 275.083 36.1025 275.183 36.1837C275.283 36.2649 275.346 36.3755 275.371 36.5154L276.173 44.2482C276.189 44.4093 276.147 44.5359 276.044 44.6279C275.943 44.7301 275.837 44.7869 275.726 44.7983ZM291.523 43.0069C291.317 42.9775 291.193 42.914 291.152 42.8164C291.113 42.7289 291.085 42.6047 291.068 42.4436C290.013 42.9702 288.972 43.2868 287.945 43.3934C287.16 43.4748 286.437 43.4176 285.775 43.2216C285.114 43.0256 284.563 42.6756 284.124 42.1716C283.694 41.6564 283.436 40.981 283.349 40.1453C283.262 39.2995 283.461 38.5766 283.949 37.9764C284.435 37.3663 285.099 36.9005 285.941 36.5791C286.403 36.4192 286.87 36.3147 287.343 36.2656C287.877 36.2103 288.412 36.2159 288.948 36.2824C289.494 36.3479 290.01 36.4673 290.497 36.6408C290.174 35.7888 289.657 35.2166 288.945 34.9241C288.242 34.6306 287.418 34.5329 286.472 34.6311C286.049 34.6749 285.614 34.7506 285.167 34.858C284.719 34.9553 284.294 35.0707 283.89 35.2042C283.772 35.2469 283.65 35.2393 283.521 35.1814C283.402 35.1123 283.321 35.0139 283.277 34.8861C283.252 34.7462 283.265 34.6177 283.313 34.5007C283.371 34.3726 283.465 34.2967 283.595 34.273C284.63 33.9519 285.566 33.748 286.402 33.6613C287.962 33.4994 289.192 33.7739 290.09 34.4847C290.987 35.1855 291.572 36.3105 291.844 37.8596C291.901 38.1082 291.947 38.4087 291.984 38.7611C292.024 39.1538 292.054 39.5833 292.071 40.0496C292.089 40.5159 292.096 40.9681 292.09 41.4063C292.085 41.8445 292.068 42.2228 292.04 42.5412C292.038 42.7144 291.979 42.8325 291.863 42.8954C291.757 42.9572 291.644 42.9944 291.523 43.0069ZM286.869 42.4364C287.055 42.4579 287.238 42.4643 287.421 42.4555C287.604 42.4569 287.786 42.4481 287.968 42.4293C288.501 42.374 289.028 42.2481 289.547 42.0518C290.066 41.8555 290.586 41.6184 291.106 41.3405C291.107 40.862 291.102 40.4198 291.091 40.0139C291.089 39.607 291.069 39.2173 291.031 38.8447C291.013 38.6736 290.991 38.5079 290.964 38.3479C290.936 38.1778 290.904 38.0132 290.867 37.8542C290.867 37.8542 290.862 37.8547 290.852 37.8557C290.852 37.8557 290.851 37.8507 290.85 37.8406C290.314 37.5807 289.751 37.4 289.16 37.2984C288.579 37.1858 288.011 37.1581 287.457 37.2156C287.286 37.2333 287.116 37.2612 286.947 37.2991C286.777 37.3269 286.608 37.3698 286.441 37.4278C285.763 37.661 285.225 38.012 284.825 38.4809C284.426 38.9497 284.26 39.5063 284.327 40.1507C284.406 40.916 284.683 41.4725 285.157 41.8202C285.64 42.167 286.211 42.3724 286.869 42.4364ZM303.464 41.7073C302.497 41.8075 301.641 41.6979 300.896 41.3783C300.161 41.0678 299.566 40.5799 299.11 39.9148C298.655 39.2497 298.379 38.4539 298.283 37.5276C298.185 36.5912 298.292 35.7508 298.601 35.0063C298.911 34.2617 299.398 33.6616 300.063 33.2059C300.727 32.7401 301.537 32.4576 302.494 32.3584C303.209 32.2842 303.843 32.3151 304.397 32.4511C304.95 32.587 305.465 32.844 305.942 33.2219C306.053 33.3122 306.115 33.4177 306.127 33.5385C306.139 33.6493 306.105 33.7648 306.026 33.8849C305.966 33.9929 305.871 34.0537 305.74 34.0673C305.609 34.0809 305.483 34.0481 305.363 33.969C304.986 33.6722 304.559 33.4774 304.081 33.3844C303.602 33.2815 303.106 33.2566 302.593 33.3099C301.827 33.3892 301.179 33.6092 300.646 33.9698C300.124 34.3293 299.736 34.8072 299.482 35.4034C299.237 35.9885 299.155 36.6637 299.234 37.4289C299.31 38.1639 299.544 38.7961 299.935 39.3255C300.325 39.8549 300.819 40.2464 301.415 40.5001C302.021 40.7527 302.672 40.8429 303.367 40.7709C303.89 40.7165 304.409 40.5711 304.924 40.3345C305.44 40.108 305.835 39.7973 306.11 39.4024C306.181 39.3034 306.287 39.2466 306.428 39.232C306.549 39.2195 306.663 39.2432 306.771 39.3033C306.879 39.3633 306.941 39.4638 306.955 39.6048C306.968 39.7256 306.939 39.8456 306.87 39.9647C306.437 40.4981 305.94 40.9008 305.378 41.1729C304.817 41.455 304.179 41.6331 303.464 41.7073ZM321.73 39.8735C321.523 39.844 321.4 39.7805 321.359 39.683C321.319 39.5955 321.291 39.4712 321.274 39.3101C320.22 39.8368 319.179 40.1534 318.152 40.2599C317.366 40.3414 316.643 40.2841 315.982 40.0881C315.32 39.8922 314.77 39.5421 314.331 39.0381C313.901 38.523 313.642 37.8476 313.556 37.0118C313.468 36.1661 313.668 35.4431 314.155 34.843C314.641 34.2328 315.305 33.767 316.147 33.4456C316.609 33.2858 317.077 33.1813 317.55 33.1322C318.084 33.0768 318.618 33.0824 319.154 33.1489C319.701 33.2144 320.217 33.3339 320.703 33.5073C320.381 32.6554 319.863 32.0831 319.151 31.7906C318.449 31.4971 317.625 31.3994 316.678 31.4976C316.255 31.5415 315.82 31.6171 315.373 31.7245C314.926 31.8219 314.5 31.9373 314.097 32.0707C313.979 32.1135 313.856 32.1059 313.728 32.0479C313.609 31.9788 313.527 31.8804 313.483 31.7527C313.459 31.6128 313.471 31.4843 313.52 31.3673C313.578 31.2391 313.672 31.1632 313.802 31.1396C314.837 30.8185 315.772 30.6146 316.608 30.5279C318.169 30.366 319.398 30.6404 320.296 31.3513C321.193 32.052 321.778 33.177 322.051 34.7262C322.107 34.9748 322.153 35.2753 322.19 35.6277C322.231 36.0204 322.26 36.4499 322.278 36.9162C322.296 37.3825 322.302 37.8347 322.296 38.2729C322.291 38.7111 322.274 39.0893 322.246 39.4077C322.244 39.581 322.185 39.6991 322.069 39.7619C321.964 39.8238 321.851 39.861 321.73 39.8735ZM317.076 39.303C317.261 39.3244 317.445 39.3308 317.627 39.3221C317.81 39.3234 317.993 39.3147 318.174 39.2959C318.708 39.2405 319.234 39.1147 319.753 38.9184C320.272 38.722 320.792 38.4849 321.313 38.207C321.314 37.7286 321.309 37.2864 321.297 36.8805C321.296 36.4736 321.276 36.0838 321.237 35.7113C321.219 35.5401 321.197 35.3745 321.17 35.2144C321.142 35.0443 321.11 34.8797 321.073 34.7207C321.073 34.7207 321.068 34.7213 321.058 34.7223C321.058 34.7223 321.057 34.7173 321.056 34.7072C320.521 34.4473 319.957 34.2666 319.367 34.165C318.785 34.0523 318.217 34.0247 317.664 34.0821C317.492 34.0999 317.322 34.1277 317.153 34.1656C316.983 34.1934 316.815 34.2364 316.648 34.2944C315.97 34.5276 315.431 34.8786 315.032 35.3474C314.633 35.8163 314.467 36.3729 314.533 37.0173C314.613 37.7825 314.889 38.339 315.363 38.6868C315.847 39.0335 316.418 39.2389 317.076 39.303ZM337.321 37.8593C337.291 37.8624 337.244 37.857 337.182 37.8431C337.046 37.8064 336.937 37.7413 336.856 37.6479C336.785 37.5535 336.758 37.4393 336.775 37.3053C336.861 36.8587 336.907 36.3756 336.915 35.8558C336.921 35.3259 336.897 34.7992 336.842 34.2757C336.811 33.9736 336.771 33.6826 336.721 33.4028C336.671 33.1129 336.612 32.8391 336.544 32.5815C336.456 32.2243 336.331 31.9014 336.169 31.6129C336.006 31.3144 335.804 31.086 335.564 30.9277C335.322 30.7594 335.031 30.693 334.688 30.7285C334.336 30.765 334.051 30.9116 333.833 31.1683C333.616 31.4249 333.451 31.7524 333.34 32.1507C333.238 32.5479 333.167 32.9879 333.125 33.4705C333.118 33.6951 332.986 33.8462 332.73 33.9237C332.468 33.9509 332.293 33.8367 332.206 33.5812C332.069 33.1475 331.895 32.7483 331.685 32.3834C331.473 32.0085 331.233 31.7127 330.967 31.4962C330.699 31.2695 330.394 31.1739 330.052 31.2095C329.739 31.2418 329.484 31.3803 329.286 31.6248C329.087 31.8693 328.941 32.1795 328.848 32.5556C328.765 32.9306 328.715 33.3327 328.698 33.7618C328.682 34.191 328.694 34.6069 328.736 35.0097C328.789 35.5232 328.874 36.0437 328.99 36.571C329.105 37.0984 329.24 37.6086 329.393 38.1016C329.43 38.2707 329.414 38.4047 329.343 38.5037C329.282 38.6016 329.192 38.6669 329.073 38.6996C328.936 38.7545 328.812 38.7368 328.701 38.6466C328.591 38.5664 328.521 38.477 328.49 38.3784C328.336 37.8753 328.196 37.3556 328.069 36.8192C327.951 36.2717 327.864 35.7261 327.807 35.1824C327.747 34.5984 327.734 34.0298 327.768 33.4767C327.801 32.9135 327.895 32.4 328.051 31.936C328.216 31.4711 328.457 31.0899 328.772 30.7926C329.097 30.4943 329.516 30.3185 330.03 30.2652C330.382 30.2287 330.718 30.2803 331.038 30.4201C331.358 30.56 331.638 30.7549 331.877 31.0048C332.126 31.2436 332.317 31.5138 332.45 31.8155C332.652 31.2144 332.924 30.7436 333.265 30.4028C333.615 30.051 334.067 29.8464 334.621 29.7889C335.135 29.7357 335.576 29.8171 335.944 30.0333C336.312 30.2395 336.618 30.5486 336.865 30.9607C337.11 31.3627 337.306 31.8308 337.453 32.3651C337.534 32.6519 337.601 32.9604 337.656 33.2906C337.721 33.6197 337.771 33.9554 337.806 34.2978C337.864 34.8516 337.885 35.404 337.871 35.955C337.867 36.505 337.818 37.0088 337.723 37.4664C337.704 37.5803 337.653 37.6722 337.568 37.742C337.494 37.8108 337.411 37.8499 337.321 37.8593ZM344.899 37.18C344.704 37.1697 344.58 37.0553 344.527 36.8369C344.46 36.5793 344.388 36.2356 344.313 35.8058C344.238 35.376 344.163 34.8953 344.087 34.3637C344.022 33.8311 343.955 33.2884 343.888 32.7357C343.819 32.1729 343.758 31.6347 343.705 31.1212C343.651 30.5976 343.603 30.1395 343.563 29.7468C343.565 29.5736 343.612 29.4414 343.705 29.3504C343.807 29.2584 343.915 29.2167 344.028 29.2254C344.148 29.2128 344.254 29.2527 344.345 29.3451C344.446 29.4363 344.504 29.5525 344.519 29.6934C344.529 29.8858 344.539 30.0832 344.55 30.2856C344.57 30.4769 344.59 30.6783 344.612 30.8897C344.682 31.5643 344.777 32.2822 344.897 33.0432C345.016 33.8043 345.142 34.6207 345.273 35.4925C346.142 34.2524 347.012 33.0732 347.883 31.9549C348.754 30.8366 349.647 29.7822 350.562 28.7917C350.663 28.6896 350.77 28.6328 350.88 28.6213C350.991 28.6099 351.096 28.6397 351.195 28.7108C351.304 28.7809 351.374 28.8703 351.406 28.979C351.495 29.3463 351.574 29.7147 351.643 30.0841C351.722 30.4525 351.792 30.8828 351.853 31.3751C351.924 31.8664 351.997 32.4695 352.071 33.1844C352.155 33.8982 352.252 34.7838 352.362 35.841C352.379 36.0021 352.335 36.1236 352.232 36.2056C352.129 36.2976 352.023 36.3494 351.912 36.3609C351.751 36.3776 351.624 36.3348 351.532 36.2324C351.451 36.139 351.405 36.0369 351.394 35.9262C351.387 35.764 351.374 35.5873 351.354 35.396C351.334 35.2047 351.313 34.9983 351.29 34.7768C351.24 34.2935 351.181 33.7805 351.115 33.2378C351.047 32.6851 350.976 32.1479 350.902 31.6264C350.828 31.105 350.755 30.6545 350.685 30.275C350.152 30.8189 349.671 31.3318 349.242 31.8139C348.824 32.2949 348.417 32.79 348.022 33.2991C347.637 33.8072 347.232 34.3632 346.806 34.9671C346.389 35.5599 345.915 36.24 345.384 37.0075C345.294 37.1187 345.209 37.1784 345.128 37.1868C345.098 37.1899 345.062 37.1885 345.021 37.1826C344.991 37.1857 344.95 37.1849 344.899 37.18ZM358.099 35.9633C357.727 36.002 357.417 35.912 357.171 35.6933C356.924 35.4746 356.785 35.2092 356.752 34.8971C356.716 34.5447 356.797 34.2513 356.997 34.0168C357.196 33.7824 357.482 33.6459 357.855 33.6072C358.248 33.5665 358.561 33.6459 358.796 33.8455C359.03 34.0451 359.164 34.311 359.199 34.6433C359.237 35.0057 359.156 35.3042 358.956 35.5386C358.757 35.7831 358.472 35.9247 358.099 35.9633ZM365.651 35.18C365.278 35.2186 364.969 35.1286 364.722 34.9099C364.476 34.6913 364.336 34.4258 364.304 34.1137C364.267 33.7613 364.349 33.4679 364.548 33.2335C364.748 32.999 365.034 32.8625 365.406 32.8239C365.799 32.7831 366.113 32.8626 366.347 33.0621C366.582 33.2617 366.716 33.5276 366.75 33.8599C366.788 34.2224 366.707 34.5208 366.508 34.7553C366.309 34.9998 366.023 35.1413 365.651 35.18ZM373.203 34.3966C372.83 34.4352 372.52 34.3452 372.274 34.1266C372.027 33.9079 371.888 33.6425 371.855 33.3304C371.819 32.9779 371.9 32.6845 372.1 32.4501C372.3 32.2157 372.586 32.0791 372.958 32.0405C373.351 31.9998 373.664 32.0792 373.899 32.2788C374.133 32.4783 374.268 32.7443 374.302 33.0765C374.34 33.439 374.259 33.7375 374.059 33.9719C373.861 34.2164 373.575 34.358 373.203 34.3966Z" fill="#966BDA"/>
</svg>
